<svg width="69" height="96" viewBox="0 0 69 96" fill="none" xmlns="http://www.w3.org/2000/svg">
<path d="M30.6651 0.750244H68.7579L37.6933 95.0326H0.78125L30.6651 0.750244Z" fill="#E0FFF3"/>
<path d="M19.0923 75.6406C15.0109 75.6406 11.8056 74.7533 9.47649 72.9788C7.16957 71.1821 5.50593 68.2319 4.48556 64.1282C3.48737 60.0246 2.98828 54.346 2.98828 47.0925C2.98828 39.8834 3.49847 34.2492 4.51883 30.1899C5.56138 26.1084 7.2583 23.1804 9.60958 21.4059C11.9609 19.6091 15.2216 18.7108 19.3918 18.7108C23.3845 18.7108 26.5122 19.6091 28.7747 21.4059C31.0595 23.1804 32.6898 26.1084 33.6659 30.1899C34.664 34.2492 35.1631 39.8834 35.1631 47.0925C35.1631 54.346 34.6529 60.0246 33.6326 64.1282C32.6344 68.2319 30.9818 71.1821 28.6749 72.9788C26.368 74.7533 23.1738 75.6406 19.0923 75.6406ZM19.1922 66.9897C20.1682 66.9897 20.9445 66.3575 21.5213 65.0931C22.098 63.8288 22.5194 61.7547 22.7856 58.8711C23.0518 55.9875 23.2182 52.0058 23.2847 46.9261C23.2847 41.9574 23.1516 38.0756 22.8854 35.2806C22.6414 32.4635 22.22 30.445 21.6211 29.225C21.0444 28.005 20.2458 27.395 19.2254 27.395C18.1829 27.395 17.3511 28.0161 16.73 29.2583C16.1311 30.5004 15.6874 32.5412 15.3991 35.3805C15.1107 38.1976 14.9332 42.1016 14.8667 47.0925C14.8667 52.15 14.9998 56.1095 15.266 58.9709C15.5321 61.8102 15.9758 63.862 16.5969 65.1264C17.218 66.3686 18.0831 66.9897 19.1922 66.9897Z" fill="#17A682"/>
<path d="M55.027 18.6775H57.1232V74.4761H45.2115V22.2377L55.027 18.6775ZM53.0972 19.4428L53.3967 30.4894L40.4868 34.5486V23.9013L53.0972 19.4428Z" fill="#17A682"/>
</svg>
