<svg xmlns="http://www.w3.org/2000/svg" version="1.1" viewBox="-5.0 -10.0 110.0 135.0">
 <path d="m71.598 35.324c1.3477 7.2227 0.91016 17.602-5.9609 22.121-2.9766 1.957-7.2031 2.7422-10.523 1.2227-1.9414-0.88672-3.6445-2.4648-5.3203-3.7695-1.7578-1.3672-3.5273-2.7227-5.4297-3.8867-1.4414-0.87891-2.9609-1.6562-4.5547-2.2266-1.1992-0.42969-3.1992-1.1523-4.4844-0.73047-1.2539 0.41406-2.0938 2.2734-2.5 3.4492-0.74609 2.1758-0.94531 4.5039-0.9375 6.7891 0.027343 8.4727 1.8203 17.082 4.0781 25.289 0.47656-3.3477 0.95703-6.6914 1.4336-10.039 0.13281-0.93359 3.2617-1.1484 3.2188-0.86328-0.10156 0.70703-1.6992 11.906-2.3984 16.793-0.10938 0.75781-2.5703 1.375-3.1289 0.96484-0.63281-0.45703-1.2656-0.91797-1.8945-1.375-4.3906-3.1875-8.7773-6.375-13.168-9.5625-0.42578-0.30859 0.79688-0.78516 0.97656-0.84766 0.48438-0.17188 1.5859-0.56641 2.0625-0.21875 0.63281 0.45703 7.332 5.3242 10.051 7.3008-1.3242-4.7656-2.4492-9.5859-3.2383-14.469-0.80859-5-1.6484-10.348-1.0391-15.414 0.40625-3.3711 1.4648-6.6953 4.7891-8.1328 2.7656-1.1953 5.7773-1.1133 8.6016-0.20312 3.6602 1.1797 6.8359 3.4141 9.8516 5.7422 2.9336 2.2617 7.4219 6.9688 11.293 4.0508 3.1953-2.4102 4.6914-6.6797 5.2852-10.492 0.6875-4.4453 0.22266-9.0039-0.89062-13.344-2.1797-8.5273-6.4844-17.168-13.336-22.879-0.36328-0.30469 2.4219-1.5742 3.043-1.0547 7.5664 6.3086 12.336 16.23 14.121 25.785zm-45.746 30.727c-0.87109-3.5703-1.3945-7.3203-0.97656-10.996 0.38672-3.4023 2.1016-6.8242 4.6016-9.1797-0.054687 0.023438-0.10156 0.050781-0.15234 0.082031 0.42578-0.25 0.95312-0.625 0.35938-0.97266-0.53125-0.3125-1.7891 0.097656-2.2617 0.375-4.1367 2.4258-5.6914 7.793-5.875 12.273-0.12891 3.1289 0.34375 6.2461 1.0859 9.2812 0.20313 0.83984 3.4336 0.015626 3.2188-0.86328zm53.504-34.801c-0.61328-2.8516-1.5742-5.8906-3.2109-8.3477-0.55469-0.83594-3.5273 0.39844-3.2188 0.86328 1.582 2.3711 2.5195 5.2969 3.1445 8.0469 1.5977 7.0625 0.60156 14.316-2.1445 20.965-0.26172 0.63281 2.8242 0.33203 3.1836-0.53906 2.7344-6.6289 3.7695-13.926 2.2461-20.988z"/>
<text x="0.0" y="117.5" font-size="5.0" font-weight="bold" font-family="Arbeit Regular, Helvetica, Arial-Unicode, Arial, Sans-serif" fill="#000000">Created by iconcheese</text><text x="0.0" y="122.5" font-size="5.0" font-weight="bold" font-family="Arbeit Regular, Helvetica, Arial-Unicode, Arial, Sans-serif" fill="#000000">from Noun Project</text></svg>