<svg width="227" height="29" viewBox="0 0 227 29" fill="none" xmlns="http://www.w3.org/2000/svg">
<path d="M43.5396 25.48C41.7796 25.48 40.0796 25.28 38.4396 24.88C36.7996 24.48 35.4496 23.96 34.3896 23.32L36.6696 18.16C37.6696 18.74 38.7796 19.21 39.9996 19.57C41.2396 19.91 42.4396 20.08 43.5996 20.08C44.2796 20.08 44.8096 20.04 45.1896 19.96C45.5896 19.86 45.8796 19.73 46.0596 19.57C46.2396 19.39 46.3296 19.18 46.3296 18.94C46.3296 18.56 46.1196 18.26 45.6996 18.04C45.2796 17.82 44.7196 17.64 44.0196 17.5C43.3396 17.34 42.5896 17.18 41.7696 17.02C40.9496 16.84 40.1196 16.61 39.2796 16.33C38.4596 16.05 37.6996 15.68 36.9996 15.22C36.3196 14.76 35.7696 14.16 35.3496 13.42C34.9296 12.66 34.7196 11.72 34.7196 10.6C34.7196 9.30002 35.0796 8.12002 35.7996 7.06002C36.5396 5.98002 37.6296 5.12002 39.0696 4.48002C40.5296 3.84002 42.3396 3.52002 44.4996 3.52002C45.9196 3.52002 47.3196 3.67002 48.6996 3.97002C50.0796 4.27002 51.3196 4.73002 52.4196 5.35002L50.2896 10.48C49.2496 9.96002 48.2396 9.57002 47.2596 9.31002C46.2996 9.05002 45.3596 8.92002 44.4396 8.92002C43.7596 8.92002 43.2196 8.98002 42.8196 9.10002C42.4196 9.22002 42.1296 9.38002 41.9496 9.58002C41.7896 9.78002 41.7096 10 41.7096 10.24C41.7096 10.6 41.9196 10.89 42.3396 11.11C42.7596 11.31 43.3096 11.48 43.9896 11.62C44.6896 11.76 45.4496 11.91 46.2696 12.07C47.1096 12.23 47.9396 12.45 48.7596 12.73C49.5797 13.01 50.3296 13.38 51.0096 13.84C51.7096 14.3 52.2697 14.9 52.6896 15.64C53.1097 16.38 53.3197 17.3 53.3197 18.4C53.3197 19.68 52.9497 20.86 52.2097 21.94C51.4896 23 50.4096 23.86 48.9696 24.52C47.5296 25.16 45.7196 25.48 43.5396 25.48Z" fill="white"/>
<path d="M76.9364 8.29002C78.1764 8.29002 79.2864 8.55002 80.2664 9.07002C81.2664 9.57002 82.0464 10.36 82.6064 11.44C83.1864 12.52 83.4764 13.92 83.4764 15.64V25H76.6964V16.81C76.6964 15.79 76.5264 15.07 76.1864 14.65C75.8464 14.21 75.4064 13.99 74.8664 13.99C74.4664 13.99 74.1064 14.09 73.7864 14.29C73.4664 14.49 73.2064 14.81 73.0064 15.25C72.8264 15.67 72.7364 16.25 72.7364 16.99V25H65.9564V16.81C65.9564 15.79 65.7964 15.07 65.4764 14.65C65.1564 14.21 64.7064 13.99 64.1264 13.99C63.7264 13.99 63.3664 14.09 63.0464 14.29C62.7264 14.49 62.4664 14.81 62.2664 15.25C62.0864 15.67 61.9964 16.25 61.9964 16.99V25H55.2164V8.59002H61.6664V13.3L60.3464 11.98C60.9664 10.74 61.7964 9.82002 62.8364 9.22002C63.8764 8.60002 65.0364 8.29002 66.3164 8.29002C67.7564 8.29002 69.0264 8.67002 70.1264 9.43002C71.2464 10.17 71.9964 11.35 72.3764 12.97L70.3064 12.64C70.9064 11.28 71.7764 10.22 72.9164 9.46002C74.0764 8.68002 75.4164 8.29002 76.9364 8.29002Z" fill="white"/>
<path d="M96.3476 25V22.09L95.8676 21.31V15.79C95.8676 14.99 95.6176 14.38 95.1176 13.96C94.6376 13.54 93.8476 13.33 92.7476 13.33C92.0076 13.33 91.2576 13.45 90.4976 13.69C89.7376 13.91 89.0876 14.22 88.5476 14.62L86.3876 10.15C87.3476 9.55002 88.4976 9.09002 89.8376 8.77002C91.1776 8.45002 92.4876 8.29002 93.7676 8.29002C96.5876 8.29002 98.7676 8.92002 100.308 10.18C101.868 11.44 102.648 13.44 102.648 16.18V25H96.3476ZM91.6976 25.3C90.3576 25.3 89.2376 25.07 88.3376 24.61C87.4376 24.15 86.7576 23.54 86.2976 22.78C85.8376 22 85.6076 21.14 85.6076 20.2C85.6076 19.14 85.8776 18.24 86.4176 17.5C86.9576 16.76 87.7776 16.2 88.8776 15.82C89.9976 15.44 91.4076 15.25 93.1076 15.25H96.5276V18.52H94.1876C93.4676 18.52 92.9376 18.64 92.5976 18.88C92.2776 19.1 92.1176 19.44 92.1176 19.9C92.1176 20.28 92.2576 20.6 92.5376 20.86C92.8376 21.1 93.2376 21.22 93.7376 21.22C94.1976 21.22 94.6176 21.1 94.9976 20.86C95.3976 20.6 95.6876 20.2 95.8676 19.66L96.7376 21.67C96.4776 22.89 95.9276 23.8 95.0876 24.4C94.2476 25 93.1176 25.3 91.6976 25.3Z" fill="white"/>
<path d="M105.578 25V8.59002H112.028V13.54L110.978 12.13C111.478 10.85 112.278 9.89002 113.378 9.25002C114.478 8.61002 115.798 8.29002 117.338 8.29002V14.29C117.038 14.25 116.768 14.22 116.528 14.2C116.308 14.18 116.078 14.17 115.838 14.17C114.818 14.17 113.978 14.44 113.318 14.98C112.678 15.5 112.358 16.41 112.358 17.71V25H105.578Z" fill="white"/>
<path d="M127.619 25.3C125.359 25.3 123.599 24.76 122.339 23.68C121.079 22.58 120.449 20.9 120.449 18.64V4.90002H127.229V18.58C127.229 19.08 127.359 19.47 127.619 19.75C127.899 20.03 128.239 20.17 128.639 20.17C129.219 20.17 129.729 20.02 130.169 19.72L131.789 24.43C131.269 24.73 130.639 24.95 129.899 25.09C129.179 25.23 128.419 25.3 127.619 25.3ZM118.199 14.44V9.49002H130.589V14.44H118.199Z" fill="white"/>
<path d="M142.118 25.3C140.118 25.3 138.368 24.93 136.868 24.19C135.388 23.45 134.238 22.44 133.418 21.16C132.598 19.86 132.188 18.4 132.188 16.78C132.188 15.12 132.588 13.65 133.388 12.37C134.208 11.09 135.318 10.09 136.718 9.37002C138.138 8.65002 139.728 8.29002 141.488 8.29002C143.108 8.29002 144.598 8.61002 145.958 9.25002C147.338 9.89002 148.438 10.84 149.258 12.1C150.098 13.36 150.518 14.92 150.518 16.78C150.518 17.02 150.508 17.29 150.488 17.59C150.468 17.87 150.448 18.13 150.428 18.37H137.798V15.1H146.828L144.278 15.97C144.278 15.33 144.158 14.79 143.918 14.35C143.698 13.89 143.388 13.54 142.988 13.3C142.588 13.04 142.108 12.91 141.548 12.91C140.988 12.91 140.498 13.04 140.078 13.3C139.678 13.54 139.368 13.89 139.148 14.35C138.928 14.79 138.818 15.33 138.818 15.97V16.99C138.818 17.69 138.958 18.29 139.238 18.79C139.518 19.29 139.918 19.67 140.438 19.93C140.958 20.17 141.588 20.29 142.328 20.29C143.088 20.29 143.708 20.19 144.188 19.99C144.688 19.79 145.208 19.49 145.748 19.09L149.288 22.66C148.488 23.52 147.498 24.18 146.318 24.64C145.158 25.08 143.758 25.3 142.118 25.3Z" fill="white"/>
<path d="M164.058 8.29002C165.318 8.29002 166.458 8.55002 167.478 9.07002C168.498 9.57002 169.298 10.36 169.878 11.44C170.478 12.52 170.778 13.92 170.778 15.64V25H163.998V16.81C163.998 15.79 163.818 15.07 163.458 14.65C163.098 14.21 162.608 13.99 161.988 13.99C161.528 13.99 161.098 14.1 160.698 14.32C160.318 14.52 160.008 14.86 159.768 15.34C159.548 15.82 159.438 16.47 159.438 17.29V25H152.658V8.59002H159.108V13.39L157.818 12.01C158.458 10.77 159.318 9.84002 160.398 9.22002C161.498 8.60002 162.718 8.29002 164.058 8.29002Z" fill="white"/>
<path d="M183.652 25V22.09L183.172 21.31V15.79C183.172 14.99 182.922 14.38 182.422 13.96C181.942 13.54 181.152 13.33 180.052 13.33C179.312 13.33 178.562 13.45 177.802 13.69C177.042 13.91 176.392 14.22 175.852 14.62L173.692 10.15C174.652 9.55002 175.802 9.09002 177.142 8.77002C178.482 8.45002 179.792 8.29002 181.072 8.29002C183.892 8.29002 186.072 8.92002 187.612 10.18C189.172 11.44 189.952 13.44 189.952 16.18V25H183.652ZM179.002 25.3C177.662 25.3 176.542 25.07 175.642 24.61C174.742 24.15 174.062 23.54 173.602 22.78C173.142 22 172.912 21.14 172.912 20.2C172.912 19.14 173.182 18.24 173.722 17.5C174.262 16.76 175.082 16.2 176.182 15.82C177.302 15.44 178.712 15.25 180.412 15.25H183.832V18.52H181.492C180.772 18.52 180.242 18.64 179.902 18.88C179.582 19.1 179.422 19.44 179.422 19.9C179.422 20.28 179.562 20.6 179.842 20.86C180.142 21.1 180.542 21.22 181.042 21.22C181.502 21.22 181.922 21.1 182.302 20.86C182.702 20.6 182.992 20.2 183.172 19.66L184.042 21.67C183.782 22.89 183.232 23.8 182.392 24.4C181.552 25 180.422 25.3 179.002 25.3Z" fill="white"/>
<path d="M204.282 8.29002C205.542 8.29002 206.682 8.55002 207.702 9.07002C208.722 9.57002 209.522 10.36 210.102 11.44C210.702 12.52 211.002 13.92 211.002 15.64V25H204.222V16.81C204.222 15.79 204.042 15.07 203.682 14.65C203.322 14.21 202.832 13.99 202.212 13.99C201.752 13.99 201.322 14.1 200.922 14.32C200.542 14.52 200.232 14.86 199.992 15.34C199.772 15.82 199.662 16.47 199.662 17.29V25H192.882V8.59002H199.332V13.39L198.042 12.01C198.682 10.77 199.542 9.84002 200.622 9.22002C201.722 8.60002 202.942 8.29002 204.282 8.29002Z" fill="white"/>
<path d="M221.867 25.3C219.607 25.3 217.847 24.76 216.587 23.68C215.327 22.58 214.697 20.9 214.697 18.64V4.90002H221.477V18.58C221.477 19.08 221.607 19.47 221.867 19.75C222.147 20.03 222.487 20.17 222.887 20.17C223.467 20.17 223.977 20.02 224.417 19.72L226.037 24.43C225.517 24.73 224.887 24.95 224.147 25.09C223.427 25.23 222.667 25.3 221.867 25.3ZM212.447 14.44V9.49002H224.837V14.44H212.447Z" fill="white"/>
<path d="M15 9V5H18" stroke="white" stroke-width="3" stroke-linecap="round" stroke-linejoin="round"/>
<path d="M2.41699 16.9165H4.83366" stroke="white" stroke-width="3" stroke-linecap="round" stroke-linejoin="round"/>
<path d="M24.167 16.9165H26.5837" stroke="white" stroke-width="3" stroke-linecap="round" stroke-linejoin="round"/>
<path d="M21.7497 9.6665H7.24967C5.91499 9.6665 4.83301 10.7485 4.83301 12.0832V21.7498C4.83301 23.0845 5.91499 24.1665 7.24967 24.1665H21.7497C23.0844 24.1665 24.1663 23.0845 24.1663 21.7498V12.0832C24.1663 10.7485 23.0844 9.6665 21.7497 9.6665Z" stroke="white" stroke-width="3" stroke-linecap="round" stroke-linejoin="round"/>
<path d="M18 16V18" stroke="white" stroke-width="3" stroke-linecap="round" stroke-linejoin="round"/>
<path d="M11 16V18" stroke="white" stroke-width="3" stroke-linecap="round" stroke-linejoin="round"/>
</svg>
